<?xml version="1.0" standalone="no"?>
<!DOCTYPE svg PUBLIC "-//W3C//DTD SVG 20010904//EN"
 "http://www.w3.org/TR/2001/REC-SVG-20010904/DTD/svg10.dtd">
<svg version="1.0" xmlns="http://www.w3.org/2000/svg"
 width="512.000000pt" height="512.000000pt" viewBox="0 0 512.000000 512.000000"
 preserveAspectRatio="xMidYMid meet">

<g transform="translate(0.000000,512.000000) scale(0.100000,-0.100000)"
fill="#000000" stroke="none">
<path d="M494 5110 c-12 -4 -31 -21 -43 -36 l-21 -27 0 -2488 0 -2489 29 -32
29 -33 2072 0 2072 0 29 33 29 32 0 1962 0 1963 -547 548 c-302 302 -560 555
-575 563 -23 12 -246 14 -1540 13 -832 0 -1523 -4 -1534 -9z m2916 -310 l0
-110 -359 0 -359 0 -31 -26 c-38 -32 -49 -80 -27 -123 31 -60 39 -61 425 -61
l350 0 3 -282 c3 -314 6 -325 70 -347 20 -7 196 -11 514 -11 l484 0 0 -1815 0
-1815 -1920 0 -1920 0 0 2350 0 2350 1385 0 1385 0 0 -110z m910 -742 c0 -5
-155 -8 -345 -8 l-345 0 0 352 0 353 345 -345 c190 -190 345 -348 345 -352z"/>
<path d="M2352 4665 c-17 -14 -33 -38 -37 -54 -9 -44 18 -98 59 -118 86 -41
178 45 142 132 -29 68 -109 87 -164 40z"/>
<path d="M1300 3261 c-86 -28 -159 -90 -201 -171 -20 -37 -24 -60 -24 -135 0
-76 4 -97 25 -139 117 -229 437 -240 562 -19 l30 53 274 0 274 0 0 -43 0 -42
-64 -18 c-35 -10 -108 -40 -163 -67 -304 -145 -527 -386 -647 -696 -31 -81
-71 -245 -78 -319 -3 -29 -4 -30 -63 -33 -84 -3 -103 -9 -131 -39 l-24 -26 0
-252 c0 -239 1 -254 21 -278 33 -43 74 -49 319 -45 311 4 294 -12 298 283 4
252 0 289 -38 327 -26 26 -35 28 -100 28 l-72 0 7 53 c36 260 196 530 411 692
139 105 331 189 380 166 16 -7 109 -11 264 -11 155 0 248 4 264 11 49 23 241
-61 380 -166 216 -162 375 -431 411 -692 l7 -53 -72 0 c-65 0 -74 -2 -100 -28
-38 -38 -42 -75 -38 -327 4 -295 -13 -279 298 -283 245 -4 286 2 319 45 20 24
21 39 21 278 l0 252 -24 26 c-28 30 -47 36 -131 39 -59 3 -60 4 -63 33 -7 74
-47 238 -78 319 -120 310 -343 551 -647 696 -55 27 -128 57 -163 67 l-64 18 0
42 0 43 274 0 274 0 30 -53 c125 -221 445 -210 562 19 21 42 25 62 25 139 0
78 -4 97 -27 140 -32 60 -87 114 -148 146 -37 20 -60 24 -135 24 -75 0 -98 -4
-139 -24 -59 -29 -118 -86 -146 -141 l-20 -40 -273 0 -272 1 -20 42 c-29 61
-51 66 -305 66 -254 0 -276 -5 -305 -66 l-20 -42 -272 -1 -273 0 -20 40 c-28
56 -87 112 -146 141 -52 25 -174 36 -224 20z m135 -216 c18 -9 37 -27 44 -41
49 -109 -73 -204 -161 -125 -28 25 -33 36 -33 74 0 85 72 129 150 92z m2374
-20 c20 -20 26 -35 26 -71 0 -39 -5 -50 -33 -75 -48 -43 -112 -37 -154 15 -37
45 -11 132 46 157 33 14 88 2 115 -26z m-1139 -180 l0 -105 -110 0 -110 0 0
105 0 105 110 0 110 0 0 -105z m-1180 -1530 l0 -105 -105 0 -105 0 0 105 0
105 105 0 105 0 0 -105z m2350 0 l0 -105 -105 0 -105 0 0 105 0 105 105 0 105
0 0 -105z"/>
</g>
</svg>
